<svg xmlns="http://www.w3.org/2000/svg" width="262.161" height="222.898" viewBox="0 0 262.161 222.898">
  <g id="chart" transform="translate(-2.818)">
    <path id="Path_3" data-name="Path 3" d="M207.36,644.938a35.092,35.092,0,0,0-8.724,19.75,15.112,15.112,0,0,0,.172,4.732,8.667,8.667,0,0,0,2.156,4.02,17.941,17.941,0,0,1,2.784,3.332,5.307,5.307,0,0,1,.259,4.332,13.788,13.788,0,0,1-3.055,4.557,13.539,13.539,0,0,0-3.394,5.067c-.07.243-.443.119-.373-.123,1.011-3.488,4.4-5.47,6.013-8.612a5.374,5.374,0,0,0,.363-4.716,13.92,13.92,0,0,0-2.762-3.437,9.248,9.248,0,0,1-2.254-3.852,13.97,13.97,0,0,1-.353-4.708,34.045,34.045,0,0,1,2.486-10.346,35.714,35.714,0,0,1,6.422-10.291c.168-.188.427.108.26.294Z" transform="translate(-191.901 -468.55)" fill="#fff"/>
    <path id="Path_4" data-name="Path 4" d="M193.785,686.581a5.265,5.265,0,0,1-4.008-5.515c.02-.252.412-.233.392.02a4.875,4.875,0,0,0,3.738,5.123c.246.058.121.431-.123.373Z" transform="translate(-186.944 -492.82)" fill="#fff"/>
    <path id="Path_5" data-name="Path 5" d="M206.7,718.151a10.148,10.148,0,0,0,4.531-5.844c.071-.243.444-.119.373.123a10.555,10.555,0,0,1-4.728,6.072c-.218.129-.393-.222-.177-.351Z" transform="translate(-198.202 -513.738)" fill="#fff"/>
    <path id="Path_6" data-name="Path 6" d="M212.963,665.21a2.98,2.98,0,0,0,2.824-.143c.216-.132.391.22.177.351a3.34,3.34,0,0,1-3.124.166.2.2,0,0,1-.125-.248.2.2,0,0,1,.248-.125Z" transform="translate(-202.283 -482.225)" fill="#fff"/>
    <path id="Path_8" data-name="Path 8" d="M233.1,692.558a35.092,35.092,0,0,0-18.856,10.517,15.111,15.111,0,0,0-2.712,3.881,8.667,8.667,0,0,0-.7,4.508,17.94,17.94,0,0,1,.217,4.337,5.307,5.307,0,0,1-2.4,3.615,13.787,13.787,0,0,1-5.183,1.8,13.538,13.538,0,0,0-5.76,2c-.2.151-.426-.172-.224-.323,2.908-2.176,6.8-1.72,9.985-3.256a5.374,5.374,0,0,0,3.129-3.546,13.917,13.917,0,0,0-.136-4.407,9.249,9.249,0,0,1,.519-4.433,13.969,13.969,0,0,1,2.552-3.971,34.045,34.045,0,0,1,8.214-6.764,35.716,35.716,0,0,1,11.324-4.351c.247-.049.276.343.03.392Z" transform="translate(-192.052 -500.358)" fill="#fff"/>
    <path id="Path_9" data-name="Path 9" d="M250.379,705.667a5.265,5.265,0,0,1,.121-6.816c.168-.189.469.063.3.252a4.875,4.875,0,0,0-.1,6.341C250.863,705.639,250.539,705.861,250.379,705.667Z" transform="translate(-226.672 -504.786)" fill="#fff"/>
    <path id="Path_10" data-name="Path 10" d="M236.973,744.234a10.148,10.148,0,0,0,7.137-1.938c.2-.151.426.172.224.323a10.555,10.555,0,0,1-7.431,2c-.252-.028-.18-.414.07-.386Z" transform="translate(-218.355 -533.849)" fill="#fff"/>
    <path id="Path_11" data-name="Path 11" d="M280.889,700.4a2.98,2.98,0,0,0,2.341,1.586c.252.025.18.411-.07.386a3.34,3.34,0,0,1-2.594-1.749.2.2,0,0,1,.05-.273.2.2,0,0,1,.273.05Z" transform="translate(-247.629 -505.808)" fill="#fff"/>
    <path id="Path_12" data-name="Path 12" d="M832.52,134.454a66.82,66.82,0,0,0-46-20.954v66.959Z" transform="translate(-585.897 -113.5)" fill="#3f3d56"/>
    <path id="Path_13" data-name="Path 13" d="M832.52,201.87l-46,46h64.293a66.785,66.785,0,0,0-18.288-46Z" transform="translate(-585.897 -172.579)" fill="#6ee8c8"/>
    <path id="Path_14" data-name="Path 14" d="M850.873,355.18a67.2,67.2,0,0,1-1.154,12.44c-.06.325-.123.646-.189.968a66.471,66.471,0,0,1-7.756,20.325c-.2.338-.4.676-.6,1.008v0a67.224,67.224,0,0,1-13.457,15.92c-.262.229-.524.454-.789.676a66.725,66.725,0,0,1-40.418,15.618V355.18Z" transform="translate(-585.894 -275.073)" fill="#b7dcd2"/>
    <path id="Path_15" data-name="Path 15" d="M674.03,422.193c.89,0,1.775-.023,2.656-.057V355.175l-48.7,48.7a66.785,66.785,0,0,0,46.04,18.321Z" transform="translate(-479.917 -275.069)" fill="#4a7268"/>
    <path id="Path_16" data-name="Path 16" d="M631.993,138.473a67.018,67.018,0,0,0-67.018,67.018h69.744V138.533C633.815,138.5,632.907,138.473,631.993,138.473Z" transform="translate(-437.789 -130.195)" fill="#6948cd"/>
    <path id="Path_17" data-name="Path 17" d="M578.4,355.18l-14.09,14.09-.461.461-.01.01-12.287,12.284-.467.467-13.275,13.275-.467.467v0l-7.64,7.637A66.825,66.825,0,0,1,508.72,355.18Z" transform="translate(-400.18 -275.073)" fill="#6948cd"/>
    <path id="Path_18" data-name="Path 18" d="M376.452,465.861a4.1,4.1,0,0,0,.951-6.218l.553-30.142-6.606.553.016,29.385a4.124,4.124,0,0,0,5.086,6.421Z" transform="translate(-307.551 -324.759)" fill="#ffb6b6"/>
    <path id="Path_19" data-name="Path 19" d="M376.249,420.192l-8.639-.824a1.718,1.718,0,0,1-1.505-2.122l2.075-8.4a4.772,4.772,0,1,1,9.5.934l.45,8.612a1.718,1.718,0,0,1-1.879,1.8Z" transform="translate(-304.803 -308.072)" fill="#e4e4e4"/>
    <path id="Path_20" data-name="Path 20" d="M172.2,636.214h3.352l1.595-12.93H172.2Z" transform="translate(-115.122 -416.69)" fill="#ffb6b6"/>
    <path id="Path_21" data-name="Path 21" d="M350.881,772.491h6.6a4.207,4.207,0,0,1,4.207,4.207v.137H350.881Z" transform="translate(-294.658 -554.061)" fill="#2f2e41"/>
    <path id="Path_22" data-name="Path 22" d="M265.415,636.214h3.352l1.595-12.93h-4.947Z" transform="translate(-177.44 -416.69)" fill="#ffb6b6"/>
    <path id="Path_23" data-name="Path 23" d="M444.1,772.491h6.6a4.207,4.207,0,0,1,4.207,4.207v.137H444.1Z" transform="translate(-356.977 -554.061)" fill="#2f2e41"/>
    <path id="Path_24" data-name="Path 24" d="M215.7,348.908l2.187,13.945-20.781.273,2.734-13.4Z" transform="translate(-131.777 -233.259)" fill="#ffb6b6"/>
    <path id="Path_25" data-name="Path 25" d="M380.073,494.206c6.594,11.486,7.157,50.431,7.439,90.656h-5.605l-13.4-58.678L356.2,583.33h-5.469l3.828-64.255s-1.129-12.9,4.648-20.507l1.406-4.063Z" transform="translate(-294.561 -368.017)" fill="#2f2e41"/>
    <path id="Path_26" data-name="Path 26" d="M378.16,423.663a1.865,1.865,0,0,1-.361-.036h0a1.869,1.869,0,0,1-1.5-1.693c-.206-2.814-1.224-7.713-3.027-14.561a11.524,11.524,0,0,1,18.2-12.034,11.375,11.375,0,0,1,4.389,7.779,56.366,56.366,0,0,1-1.561,18.856,1.873,1.873,0,0,1-1.775,1.411l-14.324.277Z" transform="translate(-309.378 -300.313)" fill="#e4e4e4"/>
    <path id="Path_27" data-name="Path 27" d="M455.34,404.52a4.026,4.026,0,0,0-.211.6l-17.93,6.093-3.465-3.027-5.251,4.632,5.613,5.954a3.055,3.055,0,0,0,3.612.625l19.186-9.8a4.008,4.008,0,1,0-1.554-5.073Z" transform="translate(-346.538 -306.486)" fill="#ffb6b6"/>
    <path id="Path_28" data-name="Path 28" d="M422.724,410.607l-6.536,5.709a1.718,1.718,0,0,1-2.576-.366l-4.675-7.28a4.772,4.772,0,1,1,7.207-6.257l6.565,5.592a1.718,1.718,0,0,1,.016,2.6Z" transform="translate(-332.689 -305.551)" fill="#e4e4e4"/>
    <circle id="Ellipse_1" data-name="Ellipse 1" cx="8.786" cy="8.786" r="8.786" transform="translate(61.621 85.562) rotate(-61.337)" fill="#ffb6b6"/>
    <path id="Path_29" data-name="Path 29" d="M383.3,323.589h-1.782a8.811,8.811,0,0,0-2.642-.4q-.221,0-.44.011a8.106,8.106,0,0,0-7.276,5.833,39.79,39.79,0,0,0-1.132,14.008c2.908,1.315,7.352,2.288,13.916,1.488l.965-4.046-.081,3.925q1.388-.193,2.9-.5v-8.655h4.022C391.746,328.809,389.743,323.589,383.3,323.589Z" transform="translate(-307.335 -253.684)" fill="#2f2e41"/>
    <circle id="Ellipse_2" data-name="Ellipse 2" cx="5.303" cy="5.303" r="5.303" transform="translate(252.732 153.798)" fill="#f0f0f0"/>
    <circle id="Ellipse_3" data-name="Ellipse 3" cx="5.303" cy="5.303" r="5.303" transform="translate(123.794 4.309)" fill="#f0f0f0"/>
    <path id="Path_33" data-name="Path 33" d="M558.826,396.19a60.752,60.752,0,0,1-17.965-41.033l1.325-.048a59.43,59.43,0,0,0,17.574,40.141Z" transform="translate(-421.668 -275.025)" fill="#3f3d56"/>
    <path id="Path_34" data-name="Path 34" d="M605.786,382.038l-.961.908a60.956,60.956,0,0,1-15-27.611l.643-.156h.683a59.66,59.66,0,0,0,14.617,26.845Z" transform="translate(-454.405 -275.073)" fill="#3f3d56"/>
    <path id="Path_35" data-name="Path 35" d="M656.119,369.317l-.5.414-.01.01-.51.424a60.909,60.909,0,0,1-9.1-14.72l.607-.265h.726a59.524,59.524,0,0,0,8.75,14.09A.438.438,0,0,0,656.119,369.317Z" transform="translate(-491.957 -275.073)" fill="#3f3d56"/>
  </g>
</svg>
